<?xml version="1.0" encoding="utf-8"?>
<!-- Generator: Adobe Illustrator 22.0.0, SVG Export Plug-In . SVG Version: 6.00 Build 0)  -->
<svg version="1.1" xmlns="http://www.w3.org/2000/svg" xmlns:xlink="http://www.w3.org/1999/xlink" x="0px" y="0px"
	 viewBox="0 0 200 200" style="enable-background:new 0 0 200 200;" xml:space="preserve">
<style type="text/css">
	.st0{fill:none;stroke:#000000;stroke-width:6;stroke-miterlimit:10;}
</style>
<g id="Layer_2">
</g>
<g id="Layer_1">
	<path d="M184.6,100c-5-4,5.4-7.2,5.4-27.4C190,38,162,10,127.4,10H72.6C38,10,10,38,10,72.6C10,92.8,20.4,96,15.4,100
		c-3.8,3.2-5,12-5.4,18.8v8.6C10,162,38,190,72.6,190h54.8c34.6,0,62.6-28,62.6-62.6v-8.6C189.6,112,188.6,103.2,184.6,100z
		 M162.4,100.2c1.6,5.6,2.4,11.4,2.4,17.4c0,35.8-29,64.8-64.8,64.8s-64.8-29-64.8-64.8c0-6,0.8-11.8,2.4-17.4
		c-7-7.8-11.2-18-11.2-29.2C26.4,46.8,46,27.4,70,27.4c11.6,0,22.2,4.6,30,11.8c7.8-7.4,18.4-11.8,30-11.8
		c24.2,0,43.6,19.6,43.6,43.6C173.6,82.2,169.4,92.4,162.4,100.2z"/>
	<circle cx="140.6" cy="78.5" r="10"/>
	<circle cx="59.4" cy="78.5" r="10"/>
	<path class="st0" d="M69.4,125.7l6.5,1.8c15.8,4.3,32.4,4.3,48.2,0l6.5-1.8"/>
</g>
</svg>
